{"title":"Jennifer Lopez Ft. French Montana - I Luh Ya Papi [Explicit] 108","uid":9789083,"size":164587421,"categoryP":"video","categoryS":"music_videos","magnet":"?xt=urn:btih:b078d4ad1ee8c1854cb6666a18e90d887a4e179d&amp;dn=Jennifer+Lopez+Ft.+French+Montana+-+I+Luh+Ya+Papi+%5BExplicit%5D+108&amp;tr=udp%3A%2F%2Ftracker.openbittorrent.com%3A80&amp;tr=udp%3A%2F%2Fopen.demonii.com%3A1337&amp;tr=udp%3A%2F%2Ftracker.coppersurfer.tk%3A6969&amp;tr=udp%3A%2F%2Fexodus.desync.com%3A6969","seeders":7,"leechers":0,"uploader":"Sbyky","files":1,"time":1395218491,"description":"\n\nGeneral\nComplete name                            : Jennifer Lopez Ft. French Montana - I Luh Ya Papi [Explicit] 1080p [Sbyky].MP4\nFormat                                   : MPEG-4\nFormat profile                           : Base Media\nCodec ID                                 : isom\nFile size                                : 157 MiB\nDuration                                 : 5mn 17s\nOverall bit rate mode                    : Variable\nOverall bit rate                         : 4 149 Kbps\nEncoded date                             : UTC 2014-03-11 16:42:53\nTagged date                              : UTC 2014-03-11 16:42:53\n\nVideo\nID                                       : 1\nFormat                                   : AVC\nFormat/Info                              : Advanced Video Codec\nFormat profile                           : &lt;a class=&quot;__cf_email__&quot; href=&quot;/cdn-cgi/l/email-protection&quot; data-cfemail=&quot;327a5b555a727e061c02&quot;&gt;[email&amp;#160;protected]&lt;/a&gt;&lt;script cf-hash='f9e31' type=&quot;text/javascript&quot;&gt;\n/* &lt;![CDATA[ */!function(){try{var t=&quot;currentScript&quot;in document?document.currentScript:function(){for(var t=document.getElementsByTagName(&quot;script&quot;),e=t.length;e--;)if(t[e].getAttribute(&quot;cf-hash&quot;))return t[e]}();if(t&amp;&amp;t.previousSibling){var e,r,n,i,c=t.previousSibling,a=c.getAttribute(&quot;data-cfemail&quot;);if(a){for(e=&quot;&quot;,r=parseInt(a.substr(0,2),16),n=2;a.length-n;n+=2)i=parseInt(a.substr(n,2),16)^r,e+=String.fromCharCode(i);e=document.createTextNode(e),c.parentNode.replaceChild(e,c)}}}catch(u){}}();/* ]]&gt; */&lt;/script&gt;\nFormat settings, CABAC                   : Yes\nFormat settings, ReFrames                : 2 frames\nCodec ID                                 : avc1\nCodec ID/Info                            : Advanced Video Coding\nDuration                                 : 5mn 17s\nBit rate                                 : 4 020 Kbps\nWidth                                    : 1 920 pixels\nHeight                                   : 1 080 pixels\nDisplay aspect ratio                     : 16:9\nFrame rate mode                          : Variable\nFrame rate                               : 23.976 fps\nMinimum frame rate                       : 23.974 fps\nMaximum frame rate                       : 24.563 fps\nColor space                              : YUV\nChroma subsampling                       : 4:2:0\nBit depth                                : 8 bits\nScan type                                : Progressive\nBits/(Pixel*Frame)                       : 0.081\nStream size                              : 152 MiB (97%)\nEncoded date                             : UTC 2014-03-11 16:42:53\nTagged date                              : UTC 2014-03-11 16:42:53\n\nAudio\nID                                       : 2\nFormat                                   : AAC\nFormat/Info                              : Advanced Audio Codec\nFormat profile                           : LC\nCodec ID                                 : 40\nDuration                                 : 5mn 17s\nBit rate mode                            : Variable\nBit rate                                 : 126 Kbps\nChannel(s)                               : 2 channels\nChannel positions                        : Front: L R\nSampling rate                            : 44.1 KHz\nCompression mode                         : Lossy\nStream size                              : 4.75 MiB (3%)\nEncoded date                             : UTC 2014-03-11 16:42:32\nTagged date                              : UTC 2014-03-11 16:42:32\n\nShared By Sbyky\n","torrent":{"xt":"urn:btih:b078d4ad1ee8c1854cb6666a18e90d887a4e179d","amp;dn":"Jennifer+Lopez+Ft.+French+Montana+-+I+Luh+Ya+Papi+%5BExplicit%5D+108","amp;tr":["udp%3A%2F%2Ftracker.openbittorrent.com%3A80","udp%3A%2F%2Fopen.demonii.com%3A1337","udp%3A%2F%2Ftracker.coppersurfer.tk%3A6969","udp%3A%2F%2Fexodus.desync.com%3A6969"],"infoHash":"b078d4ad1ee8c1854cb6666a18e90d887a4e179d","infoHashBuffer":{"type":"Buffer","data":[176,120,212,173,30,232,193,133,76,182,102,106,24,233,13,136,122,78,23,157]},"announce":[],"urlList":[]}}